<?xml version="1.0" encoding="UTF-8" standalone="no"?>
<svg
   xmlns:dc="http://purl.org/dc/elements/1.1/"
   xmlns:cc="http://creativecommons.org/ns#"
   xmlns:rdf="http://www.w3.org/1999/02/22-rdf-syntax-ns#"
   xmlns:svg="http://www.w3.org/2000/svg"
   xmlns="http://www.w3.org/2000/svg"
   version="1.1"
   id="svg2"
   viewBox="0 0 300.00004 43.76103"
   height="43.761028"
   width="300.00003">
  <defs
     id="defs4" />
  <metadata
     id="metadata7">
    <rdf:RDF>
      <cc:Work
         rdf:about="">
        <dc:format>image/svg+xml</dc:format>
        <dc:type
           rdf:resource="http://purl.org/dc/dcmitype/StillImage" />
        <dc:title></dc:title>
      </cc:Work>
    </rdf:RDF>
  </metadata>
  <g
     transform="translate(-133.06857,-65.944026)"
     id="layer1">
    <g
       id="text4136"
       style="font-style:normal;font-variant:normal;font-weight:normal;font-stretch:normal;font-size:60.61084366px;line-height:125%;font-family:Prototype;-inkscape-font-specification:Prototype;letter-spacing:0px;word-spacing:0px;fill:#000000;fill-opacity:1;stroke:none;stroke-width:1px;stroke-linecap:butt;stroke-linejoin:miter;stroke-opacity:1">
      <path
         id="path4179"
         style=""
         d="m 133.06857,67.216853 0,41.579037 q 0,0.60611 0.60611,0.60611 l 7.57636,0 q 0.6061,0 0.6061,-0.60611 l 0,-13.879881 q 0,-0.606109 0.60611,-0.606109 l 10.54629,0 q 3.39421,0 5.75803,-0.969773 2.36382,-1.030384 3.81848,-2.909321 1.45466,-1.878936 2.12138,-4.485202 0.66672,-2.606266 0.66672,-5.818641 0,-3.091153 -0.66672,-5.697419 -0.66672,-2.606267 -2.12138,-4.485203 -1.45466,-1.878936 -3.81848,-2.90932 -2.36382,-1.090995 -5.75803,-1.090995 l -19.33486,0 q -0.60611,0 -0.60611,0.606108 l 0,0.666719 z m 20.97135,6.606582 q 1.091,0 1.69711,0.787941 0.66672,0.72733 0.96977,1.757715 0.30305,1.030384 0.36367,2.121379 0.12122,1.030385 0.12122,1.636493 0,0.606108 -0.12122,1.697104 -0.0606,1.030384 -0.36367,2.060768 -0.30305,1.030385 -0.96977,1.818326 -0.60611,0.72733 -1.69711,0.72733 l -11.57667,0 q -0.60611,0 -0.60611,-0.606109 l 0,-11.394838 q 0,-0.606109 0.60611,-0.606109 l 11.57667,0 z" />
      <path
         id="path4181"
         style=""
         d="m 169.73435,78.429859 0,6.182306 q 0,0.606109 0.6061,0.606109 l 15.94066,0 q 0.96977,0 1.57588,0.848552 0.60611,0.848551 0.60611,1.697103 0,1.030385 -0.96978,1.818326 -0.90916,0.72733 -2.48504,0.72733 l -10.12201,0 q -1.81833,0 -3.09116,1.030384 -1.27282,1.030384 -2.06076,2.545655 -0.78795,1.454661 -1.15161,3.212375 -0.36367,1.757715 -0.36367,3.212371 0,0.78794 0.24245,2.30322 0.24244,1.51527 0.84855,3.03054 0.66672,1.51527 1.81832,2.66688 1.15161,1.09099 2.96994,1.09099 l 21.15318,0 q 0.60611,0 0.60611,-0.60611 l 0,-20.001576 q 0,-1.939547 -0.48489,-3.879094 -0.42427,-1.939547 -1.45466,-3.515429 -0.96977,-1.575882 -2.60626,-2.545656 -1.57589,-1.030384 -3.8791,-1.030384 l -17.09226,0 q -0.6061,0 -0.6061,0.606108 z m 7.69757,23.880671 q -1.09099,0 -1.6971,-0.78794 -0.60611,-0.78794 -0.60611,-1.818325 0,-0.848551 0.5455,-1.515271 0.5455,-0.72733 1.39405,-0.72733 l 10.78873,0 q 0.60611,0 0.60611,0.606109 l 0,3.636647 q 0,0.60611 -0.60611,0.60611 l -10.42507,0 z" />
      <path
         id="path4183"
         style=""
         d="m 219.93812,78.429859 0,21.274406 q 0,0.545495 -0.5455,1.030385 -0.48489,0.48489 -1.33344,0.84855 -0.84855,0.36367 -1.93954,0.5455 -1.03039,0.18183 -2.182,0.18183 -1.1516,0 -2.2426,-0.18183 -1.09099,-0.18183 -1.93954,-0.5455 -0.78794,-0.36366 -1.33344,-0.84855 -0.48489,-0.48489 -0.48489,-1.030385 l 0,-21.274406 q 0,-0.606108 -0.60611,-0.606108 l -6.1823,0 q -0.60611,0 -0.60611,0.606108 l 0,23.880671 q 0,1.93955 1.1516,3.3336 1.21222,1.39405 3.09116,2.30321 1.87893,0.90916 4.24276,1.33344 2.42443,0.42427 4.90947,0.42427 2.42444,0 4.78826,-0.42427 2.42444,-0.42428 4.30337,-1.33344 1.93955,-0.90916 3.09115,-2.30321 1.21222,-1.39405 1.21222,-3.3336 l 0,-23.880671 q 0,-0.606108 -0.60611,-0.606108 l -6.1823,0 q -0.60611,0 -0.60611,0.606108 z" />
      <path
         id="path4185"
         style=""
         d="m 259.67042,101.52259 -16.42554,0 q -2.36382,0 -2.36382,-2.000157 l 0,-32.972299 q 0,-0.606108 -0.60611,-0.606108 l -7.57636,0 q -0.6061,0 -0.6061,0.606108 l 0,32.244969 q 0,5.091307 2.12138,7.636967 2.12138,2.48504 7.15208,2.90932 0.30305,0.0606 0.72733,0.0606 0.42427,0 0.90916,0 l 16.66798,0 q 0.60611,0 0.60611,-0.60611 l 0,-6.66719 q 0,-0.60611 -0.60611,-0.60611 z" />
      <path
         id="path4187"
         style=""
         d="m 290.68613,101.52259 -16.42554,0 q -2.36382,0 -2.36382,-2.000157 l 0,-32.972299 q 0,-0.606108 -0.60611,-0.606108 l -7.57636,0 q -0.6061,0 -0.6061,0.606108 l 0,32.244969 q 0,5.091307 2.12137,7.636967 2.12138,2.48504 7.15208,2.90932 0.30306,0.0606 0.72733,0.0606 0.42428,0 0.90917,0 l 16.66798,0 q 0.60611,0 0.60611,-0.60611 l 0,-6.66719 q 0,-0.60611 -0.60611,-0.60611 z" />
      <path
         id="path4189"
         style=""
         d="m 292.97229,109.03834 q 0,0.36366 0.48489,0.36366 l 7.87941,0 q 0.60611,0 0.78794,-0.60611 l 3.21237,-10.364452 q 0.18184,-0.66672 0.78794,-0.66672 l 14.24355,0 q 0.60611,0 0.78794,0.606109 l 3.21238,10.485673 q 0.18183,0.5455 0.78794,0.5455 l 7.94002,0 q 0.42428,0 0.42428,-0.36366 L 321.33817,69.520065 q -0.72733,-2.363823 -2.72749,-2.969931 -1.93955,-0.606108 -5.39437,-0.606108 -3.33359,0 -5.27314,0.606108 -1.93955,0.606108 -2.66688,2.969931 l -12.304,39.518275 z M 318.1864,88.733703 q 0,0.121221 0,0.181832 0.0606,0.06061 0.0606,0.121222 0,0.424276 -0.48488,0.424276 l -9.03102,0 q -0.48489,0 -0.48489,-0.424276 0,-0.06061 0,-0.121222 0.0606,-0.06061 0.0606,-0.181832 l 4.24276,-13.819273 q 0.36367,-1.090995 0.66672,-1.090995 0.30306,0 0.42428,0.242444 0.12122,0.181832 0.30305,0.848551 l 4.24276,13.819273 z" />
      <path
         id="path4191"
         style=""
         d="m 345.09382,77.823751 q -1.63649,0 -3.09115,0.666719 -1.45466,0.606109 -2.54566,1.697104 -1.09099,1.090995 -1.75771,2.545655 -0.60611,1.45466 -0.60611,3.030542 l 0,23.032119 q 0,0.60611 0.60611,0.60611 l 6.78841,0 q 0.60611,0 0.60611,-0.60611 l 0,-20.910739 q 0,-0.363665 0.18183,-0.787941 0.18184,-0.484887 0.48489,-0.848552 0.36367,-0.424276 0.78794,-0.72733 0.42428,-0.303054 0.96978,-0.303054 l 5.81864,0 q 0.6061,0 0.6061,-0.606109 l 0,-6.182306 q 0,-0.606108 -0.6061,-0.606108 l -8.24308,0 z" />
      <path
         id="path4193"
         style=""
         d="m 387.34716,86.915377 q 0,-2.18199 -0.84855,-3.818483 -0.78794,-1.697103 -2.12138,-2.848709 -1.27283,-1.212217 -2.96993,-1.818326 -1.63649,-0.606108 -3.27299,-0.606108 l -12.24339,0 q -1.93954,0 -3.69726,0.666719 -1.6971,0.666719 -2.96993,1.939547 -1.27283,1.212217 -2.06077,2.969931 -0.72733,1.757715 -0.72733,3.939705 l 0,10.667509 q 0,2.121378 0.42428,4.182148 0.42427,2.00016 1.51527,3.63665 1.09099,1.57588 2.90932,2.60627 1.81832,0.96977 4.60642,0.96977 l 10.78873,0 q 2.7881,0 4.78826,-0.5455 2.00016,-0.54549 3.27299,-1.93954 1.33343,-1.39405 1.93954,-3.75788 0.66672,-2.36382 0.66672,-6.00047 l 0,-10.243233 z m -7.45513,6.606582 0,4.848868 q 0,1.575882 -1.63649,2.606263 -1.57589,1.03039 -3.75788,1.03039 l -5.57619,0 q -0.78795,0 -1.69711,-0.12122 -0.90916,-0.18184 -1.6971,-0.60611 -0.78794,-0.48489 -1.33344,-1.27283 -0.48489,-0.787941 -0.48489,-2.000158 l 0,-9.697735 q 0,-0.848552 0.42428,-1.45466 0.42427,-0.606109 1.03038,-0.969774 0.66672,-0.363665 1.45466,-0.484887 0.78794,-0.181832 1.57589,-0.181832 l 6.60658,0 q 0.90916,0 1.81832,0.181832 0.90917,0.181833 1.6365,0.606109 0.72733,0.363665 1.1516,0.969773 0.48489,0.545498 0.48489,1.272828 l 0,5.273143 z" />
      <path
         id="path4195"
         style=""
         d="m 391.7301,108.79589 q 0,0.60611 0.60611,0.60611 l 6.18231,0 q 0.6061,0 0.6061,-0.60611 l 0,-30.366031 q 0,-0.606108 -0.6061,-0.606108 l -6.18231,0 q -0.60611,0 -0.60611,0.606108 l 0,30.366031 z m 5.27314,-34.911844 q 0,0.484887 0.48489,0.484887 l 5.69742,0 q 0.48489,0 0.48489,-0.484887 l 0,-5.697419 q 0,-0.484887 -0.48489,-0.484887 l -5.69742,0 q -0.48489,0 -0.48489,0.484887 l 0,5.697419 z m -8.84918,0 q 0,0.484887 0.48489,0.484887 l 5.69742,0 q 0.48488,0 0.48488,-0.484887 l 0,-5.697419 q 0,-0.484887 -0.48488,-0.484887 l -5.69742,0 q -0.48489,0 -0.48489,0.484887 l 0,5.697419 z" />
      <path
         id="path4197"
         style=""
         d="m 425.67407,77.217642 0,-10.667508 q 0,-0.606108 0.60611,-0.606108 l 6.1823,0 q 0.60611,0 0.60611,0.606108 l 0,42.245756 q 0,0.60611 -0.60611,0.60611 l -18.84997,0 q -2.90932,0 -4.97009,-1.45466 -2.06077,-1.51527 -3.39421,-3.81848 -1.33343,-2.30322 -2.00015,-5.030703 -0.60611,-2.727488 -0.60611,-5.273143 0,-3.57604 0.60611,-6.545972 0.66672,-2.969931 2.00015,-5.0307 1.33344,-2.121379 3.39421,-3.272985 2.06077,-1.151606 4.97009,-1.151606 l 11.45545,0 q 0.60611,0 0.60611,-0.606109 z m 0,8.60674 q 0,-0.606108 -0.60611,-0.606108 l -6.60658,0 q -1.87894,0 -3.45482,0.363665 -1.51527,0.303054 -2.66688,1.272828 -1.09099,0.909162 -1.6971,2.606266 -0.60611,1.697103 -0.60611,4.363981 0,2.485044 0.60611,4.060926 0.60611,1.575882 1.6971,2.48504 1.091,0.90917 2.60627,1.27283 1.57588,0.36367 3.51543,0.36367 l 6.60658,0 q 0.60611,0 0.60611,-0.60611 l 0,-15.576988 z" />
    </g>
  </g>
</svg>
